<?xml version="1.0" encoding="UTF-8" standalone="no"?>
<!DOCTYPE svg PUBLIC "-//W3C//DTD SVG 1.1//EN"
 "http://www.w3.org/Graphics/SVG/1.1/DTD/svg11.dtd">
<!-- Generated by graphviz version 13.1.0 (0)
 -->
<!-- Title: functions Pages: 1 -->
<svg width="212pt" height="140pt"
 viewBox="0.00 0.00 212.00 140.00" xmlns="http://www.w3.org/2000/svg" xmlns:xlink="http://www.w3.org/1999/xlink">
<g id="graph0" class="graph" transform="scale(1 1) rotate(0) translate(4 136.32)">
<title>functions</title>
<polygon fill="white" stroke="none" points="-4,4 -4,-136.32 208.48,-136.32 208.48,4 -4,4"/>
<!-- n1 -->
<g id="node1" class="node">
<title>n1</title>
<ellipse fill="none" stroke="black" cx="68.45" cy="-114.32" rx="50.16" ry="18"/>
<text xml:space="preserve" text-anchor="middle" x="68.45" y="-109.65" font-family="Times,serif" font-size="14.00">Java::xy</text>
</g>
<!-- n2 -->
<g id="node2" class="node">
<title>n2</title>
<ellipse fill="none" stroke="black" cx="102.24" cy="-70.32" rx="102.24" ry="18"/>
<text xml:space="preserve" text-anchor="middle" x="102.24" y="-65.64" font-family="Times,serif" font-size="14.00">Java::bananenbrot</text>
</g>
<!-- n2&#45;&gt;n1 -->
<g id="edge1" class="edge">
<title>n2&#45;&gt;n1</title>
<path fill="none" stroke="black" d="M88.3,-88.47C88.23,-88.56 88.17,-88.64 88.1,-88.73"/>
<polygon fill="black" stroke="black" points="86.16,-85.52 82.84,-95.58 91.71,-89.78 86.16,-85.52"/>
</g>
<!-- n3 -->
<g id="node3" class="node">
<title>n3</title>
<ellipse fill="none" stroke="black" cx="120.74" cy="-18" rx="63.31" ry="18"/>
<text xml:space="preserve" text-anchor="middle" x="120.74" y="-13.32" font-family="Times,serif" font-size="14.00">Java::main</text>
</g>
<!-- n2&#45;&gt;n3 -->
<g id="edge2" class="edge">
<title>n2&#45;&gt;n3</title>
<path fill="none" stroke="black" d="M108.71,-52.02C109.27,-50.44 109.85,-48.81 110.43,-47.17"/>
<polygon fill="black" stroke="black" points="113.71,-48.4 113.74,-37.8 107.11,-46.06 113.71,-48.4"/>
</g>
</g>
</svg>
